<mxfile host="65bd71144e">
    <diagram id="Lp3w5o72JyUQoClc5dEg" name="EDT">
        <mxGraphModel dx="2043" dy="860" grid="1" gridSize="10" guides="1" tooltips="1" connect="1" arrows="1" fold="1" page="1" pageScale="1" pageWidth="827" pageHeight="1169" math="0" shadow="0">
            <root>
                <mxCell id="0"/>
                <mxCell id="1" parent="0"/>
                <mxCell id="17" value="" style="edgeStyle=none;html=1;startArrow=none;startFill=0;endArrow=classic;endFill=1;exitX=0.5;exitY=1;exitDx=0;exitDy=0;" parent="1" source="2" edge="1">
                    <mxGeometry relative="1" as="geometry">
                        <mxPoint x="420" y="140" as="sourcePoint"/>
                        <mxPoint x="150" y="200" as="targetPoint"/>
                        <Array as="points">
                            <mxPoint x="414" y="160"/>
                            <mxPoint x="150" y="160"/>
                        </Array>
                    </mxGeometry>
                </mxCell>
                <mxCell id="2" value="Comenius Virtual School" style="rounded=0;whiteSpace=wrap;html=1;" parent="1" vertex="1">
                    <mxGeometry x="354" y="70" width="120" height="60" as="geometry"/>
                </mxCell>
                <mxCell id="10" style="edgeStyle=none;html=1;endArrow=none;endFill=0;" parent="1" source="3" edge="1">
                    <mxGeometry relative="1" as="geometry">
                        <mxPoint x="844" y="320" as="targetPoint"/>
                    </mxGeometry>
                </mxCell>
                <mxCell id="3" value="3. Software" style="rounded=0;whiteSpace=wrap;html=1;" parent="1" vertex="1">
                    <mxGeometry x="784" y="200" width="120" height="60" as="geometry"/>
                </mxCell>
                <mxCell id="8" value="3.1 Backend" style="rounded=0;whiteSpace=wrap;html=1;" parent="1" vertex="1">
                    <mxGeometry x="664" y="360" width="120" height="60" as="geometry"/>
                </mxCell>
                <mxCell id="9" value="3.2 Frontend" style="rounded=0;whiteSpace=wrap;html=1;" parent="1" vertex="1">
                    <mxGeometry x="950" y="360" width="120" height="60" as="geometry"/>
                </mxCell>
                <mxCell id="11" value="" style="endArrow=classic;html=1;endFill=1;startArrow=classic;startFill=1;exitX=0.464;exitY=-0.031;exitDx=0;exitDy=0;exitPerimeter=0;entryX=0.5;entryY=0;entryDx=0;entryDy=0;" parent="1" source="8" target="9" edge="1">
                    <mxGeometry width="50" height="50" relative="1" as="geometry">
                        <mxPoint x="750" y="359.9999999999998" as="sourcePoint"/>
                        <mxPoint x="1000" y="350" as="targetPoint"/>
                        <Array as="points">
                            <mxPoint x="720" y="320"/>
                            <mxPoint x="825" y="320"/>
                            <mxPoint x="1010" y="320"/>
                        </Array>
                    </mxGeometry>
                </mxCell>
                <mxCell id="20" value="" style="endArrow=classic;html=1;entryX=0.5;entryY=0;entryDx=0;entryDy=0;" parent="1" target="3" edge="1">
                    <mxGeometry width="50" height="50" relative="1" as="geometry">
                        <mxPoint x="410" y="160" as="sourcePoint"/>
                        <mxPoint x="750" y="200" as="targetPoint"/>
                        <Array as="points">
                            <mxPoint x="844" y="160"/>
                        </Array>
                    </mxGeometry>
                </mxCell>
                <mxCell id="22" value="1. Analisis" style="rounded=0;whiteSpace=wrap;html=1;" parent="1" vertex="1">
                    <mxGeometry x="90" y="200" width="120" height="60" as="geometry"/>
                </mxCell>
                <mxCell id="23" value="" style="endArrow=classic;html=1;entryX=0.467;entryY=0;entryDx=0;entryDy=0;entryPerimeter=0;" parent="1" target="24" edge="1">
                    <mxGeometry width="50" height="50" relative="1" as="geometry">
                        <mxPoint x="410" y="160" as="sourcePoint"/>
                        <mxPoint x="410" y="190" as="targetPoint"/>
                    </mxGeometry>
                </mxCell>
                <mxCell id="24" value="2. Diseño" style="rounded=0;whiteSpace=wrap;html=1;" parent="1" vertex="1">
                    <mxGeometry x="354" y="200" width="120" height="60" as="geometry"/>
                </mxCell>
                <mxCell id="25" value="1.1 Plan de negocios" style="rounded=0;whiteSpace=wrap;html=1;" parent="1" vertex="1">
                    <mxGeometry x="160" y="280" width="120" height="60" as="geometry"/>
                </mxCell>
                <mxCell id="27" value="1.2 Acta de constitución" style="rounded=0;whiteSpace=wrap;html=1;" parent="1" vertex="1">
                    <mxGeometry x="160" y="360" width="120" height="60" as="geometry"/>
                </mxCell>
                <mxCell id="28" value="1.3 EDT" style="rounded=0;whiteSpace=wrap;html=1;" parent="1" vertex="1">
                    <mxGeometry x="160" y="440" width="120" height="60" as="geometry"/>
                </mxCell>
                <mxCell id="29" value="1.3.1 Diccionario de EDT" style="rounded=0;whiteSpace=wrap;html=1;" parent="1" vertex="1">
                    <mxGeometry x="230" y="520" width="120" height="60" as="geometry"/>
                </mxCell>
                <mxCell id="30" value="1.4 Diagrama de Gantt" style="rounded=0;whiteSpace=wrap;html=1;" parent="1" vertex="1">
                    <mxGeometry x="160" y="600" width="120" height="60" as="geometry"/>
                </mxCell>
                <mxCell id="31" value="1.5 Requerimentos funcionales y NO funcionales" style="rounded=0;whiteSpace=wrap;html=1;" parent="1" vertex="1">
                    <mxGeometry x="160" y="680" width="120" height="60" as="geometry"/>
                </mxCell>
                <mxCell id="32" value="" style="endArrow=classic;html=1;entryX=0;entryY=0.5;entryDx=0;entryDy=0;" parent="1" target="25" edge="1">
                    <mxGeometry width="50" height="50" relative="1" as="geometry">
                        <mxPoint x="120" y="310" as="sourcePoint"/>
                        <mxPoint x="170" y="260" as="targetPoint"/>
                    </mxGeometry>
                </mxCell>
                <mxCell id="34" value="1.5.1 Diccionario de Requerimientos" style="rounded=0;whiteSpace=wrap;html=1;" parent="1" vertex="1">
                    <mxGeometry x="230" y="760" width="120" height="60" as="geometry"/>
                </mxCell>
                <mxCell id="35" value="" style="endArrow=none;html=1;" parent="1" edge="1">
                    <mxGeometry width="50" height="50" relative="1" as="geometry">
                        <mxPoint x="119" y="1670" as="sourcePoint"/>
                        <mxPoint x="120" y="260" as="targetPoint"/>
                    </mxGeometry>
                </mxCell>
                <mxCell id="36" value="2.1 Wireframe" style="rounded=0;whiteSpace=wrap;html=1;" parent="1" vertex="1">
                    <mxGeometry x="431" y="360" width="120" height="60" as="geometry"/>
                </mxCell>
                <mxCell id="37" value="" style="endArrow=classic;html=1;entryX=0;entryY=0.5;entryDx=0;entryDy=0;" parent="1" edge="1">
                    <mxGeometry width="50" height="50" relative="1" as="geometry">
                        <mxPoint x="120" y="390" as="sourcePoint"/>
                        <mxPoint x="160" y="390" as="targetPoint"/>
                    </mxGeometry>
                </mxCell>
                <mxCell id="38" value="" style="endArrow=classic;html=1;entryX=0;entryY=0.5;entryDx=0;entryDy=0;" parent="1" edge="1">
                    <mxGeometry width="50" height="50" relative="1" as="geometry">
                        <mxPoint x="120" y="469.74" as="sourcePoint"/>
                        <mxPoint x="160" y="469.74" as="targetPoint"/>
                    </mxGeometry>
                </mxCell>
                <mxCell id="39" value="" style="endArrow=none;html=1;" parent="1" edge="1">
                    <mxGeometry width="50" height="50" relative="1" as="geometry">
                        <mxPoint x="200" y="550" as="sourcePoint"/>
                        <mxPoint x="200" y="500" as="targetPoint"/>
                    </mxGeometry>
                </mxCell>
                <mxCell id="40" value="1.6 Diagrama de flujo" style="rounded=0;whiteSpace=wrap;html=1;" parent="1" vertex="1">
                    <mxGeometry x="160" y="840" width="120" height="60" as="geometry"/>
                </mxCell>
                <mxCell id="41" value="" style="endArrow=classic;html=1;" parent="1" edge="1">
                    <mxGeometry width="50" height="50" relative="1" as="geometry">
                        <mxPoint x="200" y="549.71" as="sourcePoint"/>
                        <mxPoint x="230" y="549.71" as="targetPoint"/>
                    </mxGeometry>
                </mxCell>
                <mxCell id="42" value="1.7 Diagrama de UML" style="rounded=0;whiteSpace=wrap;html=1;" parent="1" vertex="1">
                    <mxGeometry x="160" y="920" width="120" height="60" as="geometry"/>
                </mxCell>
                <mxCell id="43" value="1.8 Diagrama de contexto" style="rounded=0;whiteSpace=wrap;html=1;" parent="1" vertex="1">
                    <mxGeometry x="160" y="1000" width="120" height="60" as="geometry"/>
                </mxCell>
                <mxCell id="44" value="" style="endArrow=classic;html=1;entryX=0;entryY=0.5;entryDx=0;entryDy=0;" parent="1" edge="1">
                    <mxGeometry width="50" height="50" relative="1" as="geometry">
                        <mxPoint x="120" y="629.79" as="sourcePoint"/>
                        <mxPoint x="160" y="629.79" as="targetPoint"/>
                    </mxGeometry>
                </mxCell>
                <mxCell id="45" value="" style="endArrow=classic;html=1;entryX=0;entryY=0.5;entryDx=0;entryDy=0;" parent="1" edge="1">
                    <mxGeometry width="50" height="50" relative="1" as="geometry">
                        <mxPoint x="120" y="709.79" as="sourcePoint"/>
                        <mxPoint x="160" y="709.79" as="targetPoint"/>
                    </mxGeometry>
                </mxCell>
                <mxCell id="47" value="1.10 Diagrama de Componentes" style="rounded=0;whiteSpace=wrap;html=1;" parent="1" vertex="1">
                    <mxGeometry x="160" y="1160" width="120" height="60" as="geometry"/>
                </mxCell>
                <mxCell id="48" value="" style="endArrow=none;html=1;" parent="1" edge="1">
                    <mxGeometry width="50" height="50" relative="1" as="geometry">
                        <mxPoint x="200" y="790" as="sourcePoint"/>
                        <mxPoint x="200" y="740" as="targetPoint"/>
                    </mxGeometry>
                </mxCell>
                <mxCell id="49" value="" style="endArrow=classic;html=1;" parent="1" edge="1">
                    <mxGeometry width="50" height="50" relative="1" as="geometry">
                        <mxPoint x="200" y="789.71" as="sourcePoint"/>
                        <mxPoint x="230" y="789.71" as="targetPoint"/>
                    </mxGeometry>
                </mxCell>
                <mxCell id="50" value="1.11 Casos de uso" style="rounded=0;whiteSpace=wrap;html=1;" parent="1" vertex="1">
                    <mxGeometry x="160" y="1240" width="120" height="60" as="geometry"/>
                </mxCell>
                <mxCell id="52" value="2.2 Mockups" style="rounded=0;whiteSpace=wrap;html=1;" parent="1" vertex="1">
                    <mxGeometry x="431" y="280" width="120" height="60" as="geometry"/>
                </mxCell>
                <mxCell id="53" value="1.12 Mapa de sitio" style="rounded=0;whiteSpace=wrap;html=1;" parent="1" vertex="1">
                    <mxGeometry x="160" y="1320" width="120" height="60" as="geometry"/>
                </mxCell>
                <mxCell id="55" value="1.13 Casos de prueba" style="rounded=0;whiteSpace=wrap;html=1;" parent="1" vertex="1">
                    <mxGeometry x="160" y="1400" width="120" height="60" as="geometry"/>
                </mxCell>
                <mxCell id="56" value="" style="endArrow=classic;html=1;entryX=0;entryY=0.5;entryDx=0;entryDy=0;" parent="1" edge="1">
                    <mxGeometry width="50" height="50" relative="1" as="geometry">
                        <mxPoint x="120" y="869.8" as="sourcePoint"/>
                        <mxPoint x="160" y="869.8" as="targetPoint"/>
                    </mxGeometry>
                </mxCell>
                <mxCell id="57" value="1.14 Diagrama de arquitectura" style="rounded=0;whiteSpace=wrap;html=1;" parent="1" vertex="1">
                    <mxGeometry x="160" y="1480" width="120" height="60" as="geometry"/>
                </mxCell>
                <mxCell id="59" value="1.15 Matriz de trazabilidad" style="rounded=0;whiteSpace=wrap;html=1;" parent="1" vertex="1">
                    <mxGeometry x="160" y="1560" width="120" height="60" as="geometry"/>
                </mxCell>
                <mxCell id="60" value="" style="endArrow=classic;html=1;entryX=0;entryY=0.5;entryDx=0;entryDy=0;" parent="1" edge="1">
                    <mxGeometry width="50" height="50" relative="1" as="geometry">
                        <mxPoint x="120.00000000000011" y="950" as="sourcePoint"/>
                        <mxPoint x="160" y="950" as="targetPoint"/>
                    </mxGeometry>
                </mxCell>
                <mxCell id="61" value="" style="endArrow=classic;html=1;entryX=0;entryY=0.5;entryDx=0;entryDy=0;" parent="1" edge="1">
                    <mxGeometry width="50" height="50" relative="1" as="geometry">
                        <mxPoint x="120.00000000000011" y="1029.63" as="sourcePoint"/>
                        <mxPoint x="160" y="1029.63" as="targetPoint"/>
                    </mxGeometry>
                </mxCell>
                <mxCell id="62" value="" style="endArrow=classic;html=1;entryX=0;entryY=0.5;entryDx=0;entryDy=0;" parent="1" edge="1">
                    <mxGeometry width="50" height="50" relative="1" as="geometry">
                        <mxPoint x="120.00000000000011" y="1110" as="sourcePoint"/>
                        <mxPoint x="160" y="1110" as="targetPoint"/>
                    </mxGeometry>
                </mxCell>
                <mxCell id="63" value="" style="endArrow=classic;html=1;entryX=0;entryY=0.5;entryDx=0;entryDy=0;" parent="1" edge="1">
                    <mxGeometry width="50" height="50" relative="1" as="geometry">
                        <mxPoint x="120.00000000000011" y="1189.75" as="sourcePoint"/>
                        <mxPoint x="160" y="1189.75" as="targetPoint"/>
                    </mxGeometry>
                </mxCell>
                <mxCell id="64" value="" style="endArrow=classic;html=1;entryX=0;entryY=0.5;entryDx=0;entryDy=0;" parent="1" edge="1">
                    <mxGeometry width="50" height="50" relative="1" as="geometry">
                        <mxPoint x="120.00000000000011" y="1269.66" as="sourcePoint"/>
                        <mxPoint x="160.0000000000001" y="1269.66" as="targetPoint"/>
                    </mxGeometry>
                </mxCell>
                <mxCell id="65" value="" style="endArrow=classic;html=1;entryX=0;entryY=0.5;entryDx=0;entryDy=0;" parent="1" edge="1">
                    <mxGeometry width="50" height="50" relative="1" as="geometry">
                        <mxPoint x="120.00000000000011" y="1349.66" as="sourcePoint"/>
                        <mxPoint x="160.0000000000001" y="1349.66" as="targetPoint"/>
                    </mxGeometry>
                </mxCell>
                <mxCell id="fGtYzaSFBDqaNsqAbOAZ-65" value="1.9 &lt;br&gt;Diagrama de DER" style="rounded=0;whiteSpace=wrap;html=1;" parent="1" vertex="1">
                    <mxGeometry x="160" y="1080" width="120" height="60" as="geometry"/>
                </mxCell>
                <mxCell id="fGtYzaSFBDqaNsqAbOAZ-66" value="1.16 Manual de usuario" style="rounded=0;whiteSpace=wrap;html=1;" parent="1" vertex="1">
                    <mxGeometry x="160" y="1640" width="120" height="60" as="geometry"/>
                </mxCell>
                <mxCell id="68" value="" style="endArrow=classic;html=1;entryX=0;entryY=0.5;entryDx=0;entryDy=0;" parent="1" edge="1">
                    <mxGeometry width="50" height="50" relative="1" as="geometry">
                        <mxPoint x="120.00000000000011" y="1429.71" as="sourcePoint"/>
                        <mxPoint x="160.0000000000001" y="1429.71" as="targetPoint"/>
                    </mxGeometry>
                </mxCell>
                <mxCell id="69" value="" style="endArrow=classic;html=1;entryX=0;entryY=0.5;entryDx=0;entryDy=0;" parent="1" edge="1">
                    <mxGeometry width="50" height="50" relative="1" as="geometry">
                        <mxPoint x="120.00000000000011" y="1509.7100000000003" as="sourcePoint"/>
                        <mxPoint x="160.0000000000001" y="1509.7100000000003" as="targetPoint"/>
                    </mxGeometry>
                </mxCell>
                <mxCell id="70" value="" style="endArrow=classic;html=1;entryX=0;entryY=0.5;entryDx=0;entryDy=0;" parent="1" edge="1">
                    <mxGeometry width="50" height="50" relative="1" as="geometry">
                        <mxPoint x="120.00000000000011" y="1589.7100000000003" as="sourcePoint"/>
                        <mxPoint x="160.0000000000001" y="1589.7100000000003" as="targetPoint"/>
                    </mxGeometry>
                </mxCell>
                <mxCell id="71" value="" style="endArrow=classic;html=1;entryX=0;entryY=0.5;entryDx=0;entryDy=0;" parent="1" edge="1">
                    <mxGeometry width="50" height="50" relative="1" as="geometry">
                        <mxPoint x="120.00000000000011" y="1669.76" as="sourcePoint"/>
                        <mxPoint x="160.0000000000001" y="1669.76" as="targetPoint"/>
                    </mxGeometry>
                </mxCell>
                <mxCell id="75" value="" style="endArrow=classic;html=1;entryX=0;entryY=0.5;entryDx=0;entryDy=0;" parent="1" edge="1">
                    <mxGeometry width="50" height="50" relative="1" as="geometry">
                        <mxPoint x="391" y="309.5" as="sourcePoint"/>
                        <mxPoint x="431" y="309.5" as="targetPoint"/>
                    </mxGeometry>
                </mxCell>
                <mxCell id="76" value="" style="endArrow=classic;html=1;entryX=0;entryY=0.5;entryDx=0;entryDy=0;" parent="1" edge="1">
                    <mxGeometry width="50" height="50" relative="1" as="geometry">
                        <mxPoint x="391" y="389.76" as="sourcePoint"/>
                        <mxPoint x="431" y="389.76" as="targetPoint"/>
                    </mxGeometry>
                </mxCell>
                <mxCell id="78" value="" style="endArrow=none;html=1;entryX=0.297;entryY=1;entryDx=0;entryDy=0;entryPerimeter=0;" parent="1" edge="1">
                    <mxGeometry width="50" height="50" relative="1" as="geometry">
                        <mxPoint x="391" y="390" as="sourcePoint"/>
                        <mxPoint x="390.64" y="259.99999999999994" as="targetPoint"/>
                    </mxGeometry>
                </mxCell>
                <mxCell id="fGtYzaSFBDqaNsqAbOAZ-78" value="3.1.1 Modelado de la base de Datos" style="rounded=0;whiteSpace=wrap;html=1;" parent="1" vertex="1">
                    <mxGeometry x="730" y="440" width="160" height="60" as="geometry"/>
                </mxCell>
                <mxCell id="fGtYzaSFBDqaNsqAbOAZ-79" value="3.1.2 Implementación de API ZOOM" style="rounded=0;whiteSpace=wrap;html=1;" parent="1" vertex="1">
                    <mxGeometry x="730" y="520" width="160" height="60" as="geometry"/>
                </mxCell>
                <mxCell id="fGtYzaSFBDqaNsqAbOAZ-80" value="3.1.3 Implementación de API CLOUDINARY" style="rounded=0;whiteSpace=wrap;html=1;" parent="1" vertex="1">
                    <mxGeometry x="730" y="600" width="160" height="60" as="geometry"/>
                </mxCell>
                <mxCell id="fGtYzaSFBDqaNsqAbOAZ-82" value="3.1.4 Implementación de API SERVIDOR" style="rounded=0;whiteSpace=wrap;html=1;" parent="1" vertex="1">
                    <mxGeometry x="730" y="680" width="160" height="60" as="geometry"/>
                </mxCell>
                <mxCell id="80" value="" style="endArrow=none;html=1;" parent="1" edge="1">
                    <mxGeometry width="50" height="50" relative="1" as="geometry">
                        <mxPoint x="690" y="790" as="sourcePoint"/>
                        <mxPoint x="690" y="420" as="targetPoint"/>
                    </mxGeometry>
                </mxCell>
                <mxCell id="81" value="" style="endArrow=classic;html=1;entryX=0;entryY=0.5;entryDx=0;entryDy=0;" parent="1" edge="1">
                    <mxGeometry width="50" height="50" relative="1" as="geometry">
                        <mxPoint x="690" y="469.64" as="sourcePoint"/>
                        <mxPoint x="730" y="469.64" as="targetPoint"/>
                    </mxGeometry>
                </mxCell>
                <mxCell id="82" value="" style="endArrow=classic;html=1;entryX=0;entryY=0.5;entryDx=0;entryDy=0;" parent="1" edge="1">
                    <mxGeometry width="50" height="50" relative="1" as="geometry">
                        <mxPoint x="689.9999999999998" y="549.6400000000001" as="sourcePoint"/>
                        <mxPoint x="729.9999999999998" y="549.6400000000001" as="targetPoint"/>
                    </mxGeometry>
                </mxCell>
                <mxCell id="83" value="" style="endArrow=classic;html=1;entryX=0;entryY=0.5;entryDx=0;entryDy=0;" parent="1" edge="1">
                    <mxGeometry width="50" height="50" relative="1" as="geometry">
                        <mxPoint x="689.9999999999998" y="629.6400000000001" as="sourcePoint"/>
                        <mxPoint x="729.9999999999998" y="629.6400000000001" as="targetPoint"/>
                    </mxGeometry>
                </mxCell>
                <mxCell id="84" value="" style="endArrow=classic;html=1;entryX=0;entryY=0.5;entryDx=0;entryDy=0;" parent="1" edge="1">
                    <mxGeometry width="50" height="50" relative="1" as="geometry">
                        <mxPoint x="689.9999999999998" y="709.6400000000001" as="sourcePoint"/>
                        <mxPoint x="729.9999999999998" y="709.6400000000001" as="targetPoint"/>
                    </mxGeometry>
                </mxCell>
                <mxCell id="fGtYzaSFBDqaNsqAbOAZ-84" value="3.2.1 Inicio de sesión" style="rounded=0;whiteSpace=wrap;html=1;" parent="1" vertex="1">
                    <mxGeometry x="1010" y="440" width="120" height="60" as="geometry"/>
                </mxCell>
                <mxCell id="fGtYzaSFBDqaNsqAbOAZ-85" value="3.2.2 Home" style="rounded=0;whiteSpace=wrap;html=1;" parent="1" vertex="1">
                    <mxGeometry x="1010" y="600" width="120" height="60" as="geometry"/>
                </mxCell>
                <mxCell id="fGtYzaSFBDqaNsqAbOAZ-86" value="3.2.2.2 Materias del día" style="rounded=0;whiteSpace=wrap;html=1;" parent="1" vertex="1">
                    <mxGeometry x="1070" y="770" width="120" height="60" as="geometry"/>
                </mxCell>
                <mxCell id="86" value="3.2.2.4 Notificaciones" style="rounded=0;whiteSpace=wrap;html=1;" parent="1" vertex="1">
                    <mxGeometry x="1070" y="930" width="120" height="60" as="geometry"/>
                </mxCell>
                <mxCell id="88" style="edgeStyle=none;html=1;entryX=0;entryY=0.5;entryDx=0;entryDy=0;" parent="1" edge="1">
                    <mxGeometry relative="1" as="geometry">
                        <mxPoint x="1009.9999999999998" y="469.71" as="targetPoint"/>
                        <mxPoint x="970" y="470" as="sourcePoint"/>
                    </mxGeometry>
                </mxCell>
                <mxCell id="fGtYzaSFBDqaNsqAbOAZ-93" value="3.2.3.1.2 Configuración" style="rounded=0;whiteSpace=wrap;html=1;" parent="1" vertex="1">
                    <mxGeometry x="1160" y="1260" width="120" height="60" as="geometry"/>
                </mxCell>
                <mxCell id="95" value="3.2.4 OTP" style="rounded=0;whiteSpace=wrap;html=1;fillColor=#FFFFFF;strokeColor=#000000;" parent="1" vertex="1">
                    <mxGeometry x="1045" y="1540" width="120" height="40" as="geometry"/>
                </mxCell>
                <mxCell id="jI5kdBMj14xnFrsowmvD-95" style="edgeStyle=none;html=1;entryX=0;entryY=0.5;entryDx=0;entryDy=0;" parent="1" edge="1">
                    <mxGeometry relative="1" as="geometry">
                        <mxPoint x="1010" y="629.41" as="targetPoint"/>
                        <mxPoint x="970" y="629" as="sourcePoint"/>
                    </mxGeometry>
                </mxCell>
                <mxCell id="96" value="Ventana Emergentes" style="rounded=0;whiteSpace=wrap;html=1;" parent="1" vertex="1">
                    <mxGeometry x="1490" y="1060" width="120" height="60" as="geometry"/>
                </mxCell>
                <mxCell id="97" value="&amp;nbsp;3.2.3 Menú&amp;nbsp;" style="rounded=0;whiteSpace=wrap;html=1;" parent="1" vertex="1">
                    <mxGeometry x="1010" y="1020" width="120" height="60" as="geometry"/>
                </mxCell>
                <mxCell id="100" value="3.2.3.1 Menú - Index" style="rounded=0;whiteSpace=wrap;html=1;" parent="1" vertex="1">
                    <mxGeometry x="1090" y="1100" width="120" height="60" as="geometry"/>
                </mxCell>
                <mxCell id="101" value="3.2.3.2 Menú - Materia&amp;nbsp;" style="rounded=0;whiteSpace=wrap;html=1;" parent="1" vertex="1">
                    <mxGeometry x="1100" y="1440" width="120" height="60" as="geometry"/>
                </mxCell>
                <mxCell id="102" value="" style="endArrow=none;html=1;" parent="1" edge="1">
                    <mxGeometry width="50" height="50" relative="1" as="geometry">
                        <mxPoint x="1050" y="1460" as="sourcePoint"/>
                        <mxPoint x="1050" y="1080" as="targetPoint"/>
                    </mxGeometry>
                </mxCell>
                <mxCell id="103" value="" style="endArrow=classic;html=1;" parent="1" target="100" edge="1">
                    <mxGeometry width="50" height="50" relative="1" as="geometry">
                        <mxPoint x="1050" y="1130" as="sourcePoint"/>
                        <mxPoint x="1110" y="1120" as="targetPoint"/>
                    </mxGeometry>
                </mxCell>
                <mxCell id="106" value="" style="endArrow=classic;html=1;" parent="1" edge="1">
                    <mxGeometry width="50" height="50" relative="1" as="geometry">
                        <mxPoint x="970" y="1560" as="sourcePoint"/>
                        <mxPoint x="1040" y="1560" as="targetPoint"/>
                    </mxGeometry>
                </mxCell>
                <mxCell id="108" value="3.2.3.1.3 Cerrar sesión" style="rounded=0;whiteSpace=wrap;html=1;" parent="1" vertex="1">
                    <mxGeometry x="1160" y="1340" width="120" height="60" as="geometry"/>
                </mxCell>
                <mxCell id="112" value="3.1.5 Proceso de OTP" style="rounded=0;whiteSpace=wrap;html=1;" vertex="1" parent="1">
                    <mxGeometry x="730" y="760" width="160" height="60" as="geometry"/>
                </mxCell>
                <mxCell id="113" value="" style="endArrow=classic;html=1;entryX=0;entryY=0.5;entryDx=0;entryDy=0;" edge="1" parent="1">
                    <mxGeometry width="50" height="50" relative="1" as="geometry">
                        <mxPoint x="689.9999999999998" y="789.4300000000001" as="sourcePoint"/>
                        <mxPoint x="729.9999999999998" y="789.4300000000001" as="targetPoint"/>
                    </mxGeometry>
                </mxCell>
                <mxCell id="114" value="3.1.5.1 Envio de email -&amp;nbsp; OTP" style="rounded=0;whiteSpace=wrap;html=1;" vertex="1" parent="1">
                    <mxGeometry x="790" y="840" width="160" height="60" as="geometry"/>
                </mxCell>
                <mxCell id="115" value="3.1.5.2 Confirmación código - OTP" style="rounded=0;whiteSpace=wrap;html=1;" vertex="1" parent="1">
                    <mxGeometry x="790" y="910" width="160" height="60" as="geometry"/>
                </mxCell>
                <mxCell id="117" value="3.2.4.1 Envio de email -&amp;nbsp; OTP" style="rounded=0;whiteSpace=wrap;html=1;" vertex="1" parent="1">
                    <mxGeometry x="1115" y="1610" width="160" height="60" as="geometry"/>
                </mxCell>
                <mxCell id="118" value="3.2.4.2 Confirmación código - OTP" style="rounded=0;whiteSpace=wrap;html=1;" vertex="1" parent="1">
                    <mxGeometry x="1115" y="1700" width="160" height="60" as="geometry"/>
                </mxCell>
                <mxCell id="119" value="" style="endArrow=none;html=1;" edge="1" parent="1">
                    <mxGeometry width="50" height="50" relative="1" as="geometry">
                        <mxPoint x="1085" y="1730" as="sourcePoint"/>
                        <mxPoint x="1085" y="1580" as="targetPoint"/>
                    </mxGeometry>
                </mxCell>
                <mxCell id="120" value="" style="endArrow=classic;html=1;" edge="1" parent="1">
                    <mxGeometry width="50" height="50" relative="1" as="geometry">
                        <mxPoint x="1085" y="1640" as="sourcePoint"/>
                        <mxPoint x="1115" y="1640" as="targetPoint"/>
                    </mxGeometry>
                </mxCell>
                <mxCell id="121" value="" style="endArrow=classic;html=1;entryX=0;entryY=0.5;entryDx=0;entryDy=0;" edge="1" parent="1" target="118">
                    <mxGeometry width="50" height="50" relative="1" as="geometry">
                        <mxPoint x="1085" y="1730" as="sourcePoint"/>
                        <mxPoint x="1135" y="1700" as="targetPoint"/>
                    </mxGeometry>
                </mxCell>
                <mxCell id="122" value="" style="endArrow=none;html=1;entryX=0.133;entryY=1.014;entryDx=0;entryDy=0;entryPerimeter=0;" edge="1" parent="1" target="112">
                    <mxGeometry width="50" height="50" relative="1" as="geometry">
                        <mxPoint x="750" y="940" as="sourcePoint"/>
                        <mxPoint x="770" y="820" as="targetPoint"/>
                    </mxGeometry>
                </mxCell>
                <mxCell id="123" value="" style="endArrow=classic;html=1;entryX=0;entryY=0.5;entryDx=0;entryDy=0;" edge="1" parent="1" target="115">
                    <mxGeometry width="50" height="50" relative="1" as="geometry">
                        <mxPoint x="750" y="940" as="sourcePoint"/>
                        <mxPoint x="780" y="920" as="targetPoint"/>
                    </mxGeometry>
                </mxCell>
                <mxCell id="124" value="" style="endArrow=classic;html=1;" edge="1" parent="1">
                    <mxGeometry width="50" height="50" relative="1" as="geometry">
                        <mxPoint x="750" y="880" as="sourcePoint"/>
                        <mxPoint x="790" y="880" as="targetPoint"/>
                    </mxGeometry>
                </mxCell>
                <mxCell id="125" value="3.2.1.1 Olvidé contraseña" style="rounded=0;whiteSpace=wrap;html=1;" vertex="1" parent="1">
                    <mxGeometry x="1090" y="525" width="120" height="60" as="geometry"/>
                </mxCell>
                <mxCell id="126" value="3.2.2.3 Calendario" style="rounded=0;whiteSpace=wrap;html=1;" vertex="1" parent="1">
                    <mxGeometry x="1070" y="850" width="120" height="60" as="geometry"/>
                </mxCell>
                <mxCell id="127" value="3.2.2.1 Tareas pendientes" style="rounded=0;whiteSpace=wrap;html=1;" vertex="1" parent="1">
                    <mxGeometry x="1070" y="690" width="120" height="60" as="geometry"/>
                </mxCell>
                <mxCell id="128" value="3.2.3.1.1 Panel de materias" style="rounded=0;whiteSpace=wrap;html=1;" vertex="1" parent="1">
                    <mxGeometry x="1160" y="1180" width="120" height="60" as="geometry"/>
                </mxCell>
                <mxCell id="130" value="" style="endArrow=none;html=1;" edge="1" parent="1">
                    <mxGeometry width="50" height="50" relative="1" as="geometry">
                        <mxPoint x="1060" y="560" as="sourcePoint"/>
                        <mxPoint x="1060" y="500" as="targetPoint"/>
                    </mxGeometry>
                </mxCell>
                <mxCell id="131" value="" style="endArrow=classic;html=1;entryX=0;entryY=0.583;entryDx=0;entryDy=0;entryPerimeter=0;" edge="1" parent="1" target="125">
                    <mxGeometry width="50" height="50" relative="1" as="geometry">
                        <mxPoint x="1060" y="560" as="sourcePoint"/>
                        <mxPoint x="1130" y="530" as="targetPoint"/>
                    </mxGeometry>
                </mxCell>
                <mxCell id="133" value="" style="endArrow=none;html=1;" edge="1" parent="1">
                    <mxGeometry width="50" height="50" relative="1" as="geometry">
                        <mxPoint x="1030" y="970" as="sourcePoint"/>
                        <mxPoint x="1030" y="660" as="targetPoint"/>
                    </mxGeometry>
                </mxCell>
                <mxCell id="134" value="" style="endArrow=classic;html=1;entryX=0;entryY=0.5;entryDx=0;entryDy=0;" edge="1" parent="1" target="127">
                    <mxGeometry width="50" height="50" relative="1" as="geometry">
                        <mxPoint x="1030" y="720" as="sourcePoint"/>
                        <mxPoint x="1070" y="710" as="targetPoint"/>
                    </mxGeometry>
                </mxCell>
                <mxCell id="137" value="" style="endArrow=classic;html=1;entryX=0;entryY=0.5;entryDx=0;entryDy=0;" edge="1" parent="1" target="fGtYzaSFBDqaNsqAbOAZ-86">
                    <mxGeometry width="50" height="50" relative="1" as="geometry">
                        <mxPoint x="1030" y="800" as="sourcePoint"/>
                        <mxPoint x="1060" y="780" as="targetPoint"/>
                    </mxGeometry>
                </mxCell>
                <mxCell id="139" value="" style="endArrow=classic;html=1;entryX=0;entryY=0.5;entryDx=0;entryDy=0;" edge="1" parent="1" target="126">
                    <mxGeometry width="50" height="50" relative="1" as="geometry">
                        <mxPoint x="1030" y="880" as="sourcePoint"/>
                        <mxPoint x="1080" y="850" as="targetPoint"/>
                    </mxGeometry>
                </mxCell>
                <mxCell id="140" value="" style="endArrow=classic;html=1;entryX=0;entryY=0.66;entryDx=0;entryDy=0;entryPerimeter=0;" edge="1" parent="1" target="86">
                    <mxGeometry width="50" height="50" relative="1" as="geometry">
                        <mxPoint x="1030" y="970" as="sourcePoint"/>
                        <mxPoint x="1080" y="920" as="targetPoint"/>
                    </mxGeometry>
                </mxCell>
                <mxCell id="142" value="" style="endArrow=none;html=1;entryX=0.164;entryY=1.028;entryDx=0;entryDy=0;entryPerimeter=0;" edge="1" parent="1" target="9">
                    <mxGeometry width="50" height="50" relative="1" as="geometry">
                        <mxPoint x="970" y="1560" as="sourcePoint"/>
                        <mxPoint x="973" y="420" as="targetPoint"/>
                    </mxGeometry>
                </mxCell>
                <mxCell id="143" value="" style="endArrow=classic;html=1;" edge="1" parent="1">
                    <mxGeometry width="50" height="50" relative="1" as="geometry">
                        <mxPoint x="970" y="1050" as="sourcePoint"/>
                        <mxPoint x="1010" y="1050" as="targetPoint"/>
                    </mxGeometry>
                </mxCell>
                <mxCell id="144" value="" style="endArrow=none;html=1;" edge="1" parent="1">
                    <mxGeometry width="50" height="50" relative="1" as="geometry">
                        <mxPoint x="1130" y="1370" as="sourcePoint"/>
                        <mxPoint x="1130" y="1160" as="targetPoint"/>
                    </mxGeometry>
                </mxCell>
                <mxCell id="145" value="" style="endArrow=classic;html=1;" edge="1" parent="1">
                    <mxGeometry width="50" height="50" relative="1" as="geometry">
                        <mxPoint x="1130" y="1200" as="sourcePoint"/>
                        <mxPoint x="1160" y="1200" as="targetPoint"/>
                    </mxGeometry>
                </mxCell>
                <mxCell id="146" value="" style="endArrow=classic;html=1;" edge="1" parent="1">
                    <mxGeometry width="50" height="50" relative="1" as="geometry">
                        <mxPoint x="1130" y="1290" as="sourcePoint"/>
                        <mxPoint x="1160" y="1290" as="targetPoint"/>
                    </mxGeometry>
                </mxCell>
                <mxCell id="147" value="" style="endArrow=classic;html=1;" edge="1" parent="1">
                    <mxGeometry width="50" height="50" relative="1" as="geometry">
                        <mxPoint x="1130" y="1369.38" as="sourcePoint"/>
                        <mxPoint x="1160" y="1369.38" as="targetPoint"/>
                    </mxGeometry>
                </mxCell>
                <mxCell id="148" value="" style="endArrow=classic;html=1;" edge="1" parent="1">
                    <mxGeometry width="50" height="50" relative="1" as="geometry">
                        <mxPoint x="1050" y="1460" as="sourcePoint"/>
                        <mxPoint x="1100" y="1460" as="targetPoint"/>
                    </mxGeometry>
                </mxCell>
            </root>
        </mxGraphModel>
    </diagram>
    <diagram id="elTaS-bT8ZN1p7wkhr34" name="EDT 2">
        <mxGraphModel dx="799" dy="464" grid="1" gridSize="10" guides="1" tooltips="1" connect="1" arrows="1" fold="1" page="1" pageScale="1" pageWidth="827" pageHeight="1169" math="0" shadow="0">
            <root>
                <mxCell id="0"/>
                <mxCell id="1" parent="0"/>
                <mxCell id="4y-0hLYaMiK-uZygSFNw-1" value="" style="edgeStyle=none;html=1;startArrow=none;startFill=0;endArrow=classic;endFill=1;exitX=0.5;exitY=1;exitDx=0;exitDy=0;" parent="1" source="4y-0hLYaMiK-uZygSFNw-2" edge="1">
                    <mxGeometry relative="1" as="geometry">
                        <mxPoint x="420" y="140" as="sourcePoint"/>
                        <mxPoint x="150" y="200" as="targetPoint"/>
                        <Array as="points">
                            <mxPoint x="414" y="160"/>
                            <mxPoint x="150" y="160"/>
                        </Array>
                    </mxGeometry>
                </mxCell>
                <mxCell id="4y-0hLYaMiK-uZygSFNw-2" value="Comenius Virtual School" style="rounded=0;whiteSpace=wrap;html=1;" parent="1" vertex="1">
                    <mxGeometry x="354" y="70" width="120" height="60" as="geometry"/>
                </mxCell>
                <mxCell id="4y-0hLYaMiK-uZygSFNw-3" value="3. Software" style="rounded=0;whiteSpace=wrap;html=1;" parent="1" vertex="1">
                    <mxGeometry x="664" y="200" width="120" height="60" as="geometry"/>
                </mxCell>
                <mxCell id="4y-0hLYaMiK-uZygSFNw-4" value="" style="endArrow=classic;html=1;entryX=0.5;entryY=0;entryDx=0;entryDy=0;" parent="1" target="4y-0hLYaMiK-uZygSFNw-3" edge="1">
                    <mxGeometry width="50" height="50" relative="1" as="geometry">
                        <mxPoint x="410" y="160" as="sourcePoint"/>
                        <mxPoint x="630" y="200" as="targetPoint"/>
                        <Array as="points">
                            <mxPoint x="724" y="160"/>
                        </Array>
                    </mxGeometry>
                </mxCell>
                <mxCell id="4y-0hLYaMiK-uZygSFNw-5" value="1. Analisis" style="rounded=0;whiteSpace=wrap;html=1;" parent="1" vertex="1">
                    <mxGeometry x="90" y="200" width="120" height="60" as="geometry"/>
                </mxCell>
                <mxCell id="4y-0hLYaMiK-uZygSFNw-6" value="" style="endArrow=classic;html=1;" parent="1" target="4y-0hLYaMiK-uZygSFNw-7" edge="1">
                    <mxGeometry width="50" height="50" relative="1" as="geometry">
                        <mxPoint x="410" y="160" as="sourcePoint"/>
                        <mxPoint x="390" y="190" as="targetPoint"/>
                    </mxGeometry>
                </mxCell>
                <mxCell id="4y-0hLYaMiK-uZygSFNw-7" value="2. Diseño" style="rounded=0;whiteSpace=wrap;html=1;" parent="1" vertex="1">
                    <mxGeometry x="354" y="200" width="120" height="60" as="geometry"/>
                </mxCell>
            </root>
        </mxGraphModel>
    </diagram>
</mxfile>